<svg xmlns="http://www.w3.org/2000/svg" width="48" height="36" fill="none" viewBox="0 0 16 14">
          <path d="m14.907 10.12-3.119 3.119h-.008c-.007.015-.023.023-.038.039l-.024.015-.031.024-.023.015-.024.016h-.031l-.023.015h-.031l-.032.016h-.358l-.031-.016h-.032l-.023-.015h-.031l-.024-.016-.023-.015-.031-.024-.024-.015-.039-.04H10.9L7.78 10.12a.632.632 0 0 1 .89-.888l2.05 2.058V5.31a.624.624 0 1 1 1.247 0v5.98l2.05-2.058a.632.632 0 0 1 .889.888ZM6.355 5.934H.742a.624.624 0 1 0 0 1.247h5.613a.624.624 0 0 0 0-1.247ZM.742 2.192h10.602a.624.624 0 0 0 0-1.247H.742a.624.624 0 1 0 0 1.247Zm4.365 8.731H.742a.624.624 0 1 0 0 1.248h4.365a.624.624 0 0 0 0-1.248Z" fill="currentColor"></path>
        </svg>